# xmcd CD database file
#
# Track frame offsets:
#	150
#	14131
#	35548
#	50650
#	69043
#	82871
#	101539
#	127541
#	144321
#	166273
#	189077
#	207752
#	224082
#	235737
#
# Disc length: 3471 seconds
#
# Revision: 0
# Processed by: cddbd v1.5.2PL0 Copyright (c) Steve Scherf et al.
# Submitted via: CDex 1.51
#
DISCID=b20d8d0e
DTITLE=Steve Passfield - Goin' It Alone
DYEAR=2007
DGENRE=Country
TTITLE0=Goin' It Alone
TTITLE1=Australian Spirit
TTITLE2=Acceptance
TTITLE3=A Man Will Risk It All
TTITLE4=Broke 
TTITLE5=This House
TTITLE6=Break Free
TTITLE7=Phillip Cunningham
TTITLE8=Lady Of The Top End
TTITLE9=Botany Bay
TTITLE10=To Sing With Slim
TTITLE11=Trouble 
TTITLE12=Stump Jumpin'
TTITLE13=Hillbilly Redneck Town
EXTD=YEAR: 2007
EXTT0=
EXTT1=
EXTT2=
EXTT3=
EXTT4=
EXTT5=
EXTT6=
EXTT7=
EXTT8=
EXTT9=
EXTT10=
EXTT11=
EXTT12=
EXTT13=
PLAYORDER=
